name analog
datacolumns 19
datarows 47
range 0.5245 0.5475
endheader
time	ground_force_vx	ground_force_vy	ground_force_vz	ground_force_px	ground_force_py	ground_force_pz	l_ground_force_vx	l_ground_force_vy	l_ground_force_vz	l_ground_force_px	l_ground_force_py	l_ground_force_pz	ground_torque_x	ground_torque_y	ground_torque_z	l_ground_torque_x	l_ground_torque_y	l_ground_torque_z
0.5245	-0.0	-0.0	-0.0	8.564208984375	29.5716609954834	-383.7543640136719	-3.4597206115722656	-30.029373168945312	-392.2646179199219	-0.0	-0.0	-0.0	-0.0	-0.0	-0.0	113287.5	2311.17431640625	-15252.255859375
0.525	-0.0	-0.0	-0.0	8.533035278320312	29.067777633666992	-385.274658203125	-3.444288492202759	-30.528573989868164	-391.459716796875	-0.0	-0.0	-0.0	-0.0	-0.0	-0.0	113116.4140625	2493.821044921875	-15203.3525390625
0.5255	-0.0	-0.0	-0.0	8.858558654785156	29.308292388916016	-383.9066162109375	-3.6485116481781006	-30.54390335083008	-391.520751953125	-0.0	-0.0	-0.0	-0.0	-0.0	-0.0	113171.765625	2641.936767578125	-15332.5146484375
0.526	-0.0	-0.0	-0.0	8.474998474121094	29.10344696044922	-384.6749572753906	-3.178083658218384	-30.57044219970703	-390.6396484375	-0.0	-0.0	-0.0	-0.0	-0.0	-0.0	112920.0	2328.88330078125	-15262.525390625
0.5265	-0.0	-0.0	-0.0	8.312273025512695	29.014427185058597	-383.96875	-3.537424325942993	-30.3052978515625	-392.1405944824219	-0.0	-0.0	-0.0	-0.0	-0.0	-0.0	113368.46875	2367.6142578125	-15278.31640625
0.527	-0.0	-0.0	-0.0	8.160173416137695	29.072227478027344	-385.4439086914063	-3.4441447257995605	-30.22152328491211	-392.4890747070313	-0.0	-0.0	-0.0	-0.0	-0.0	-0.0	113274.84375	2458.609619140625	-15266.2734375
0.5275	-0.0	-0.0	-0.0	7.661732196807861	29.365772247314453	-384.9037170410156	-3.517207145690918	-30.0449161529541	-392.2620849609375	-0.0	-0.0	-0.0	-0.0	-0.0	-0.0	113311.28125	2416.791259765625	-15276.6728515625
0.528	-0.0	-0.0	-0.0	8.443389892578125	29.276531219482425	-386.2537231445313	-3.193588256835937	-30.091691970825195	-393.0831298828125	-0.0	-0.0	-0.0	-0.0	-0.0	-0.0	113578.515625	2578.650634765625	-15330.5263671875
0.5285	-0.0	-0.0	-0.0	8.181514739990234	29.18311309814453	-385.5470581054688	-3.412670373916626	-30.01912498474121	-392.1802062988281	-0.0	-0.0	-0.0	-0.0	-0.0	-0.0	113585.53125	2555.9765625	-15409.130859375
0.529	-0.0	-0.0	-0.0	8.411495208740234	29.6645622253418	-386.8577575683594	-3.5169920921325684	-30.1802978515625	-394.2540588378906	-0.0	-0.0	-0.0	-0.0	-0.0	-0.0	113956.953125	2485.85986328125	-15276.6357421875
0.5295	-0.0	-0.0	-0.0	8.223278999328613	29.48626518249512	-386.7702331542969	-3.307986259460449	-30.196128845214844	-394.7435302734375	-0.0	-0.0	-0.0	-0.0	-0.0	-0.0	113760.0625	2767.7861328125	-15241.5322265625
0.53	-0.0	-0.0	-0.0	8.61505126953125	29.737688064575195	-386.6945190429688	-3.437896966934204	-30.26890182495117	-394.3164978027344	-0.0	-0.0	-0.0	-0.0	-0.0	-0.0	113895.765625	2436.12646484375	-15189.5791015625
0.5305	-0.0	-0.0	-0.0	8.548225402832031	29.321304321289062	-388.1712341308594	-3.152358055114746	-30.477205276489254	-394.2544860839844	-0.0	-0.0	-0.0	-0.0	-0.0	-0.0	113949.65625	2468.748046875	-15335.708984375
0.531	-0.0	-0.0	-0.0	8.516148567199707	29.38792610168457	-387.46575927734375	-3.475583791732788	-30.373306274414062	-394.1921997070313	-0.0	-0.0	-0.0	-0.0	-0.0	-0.0	114130.0	2721.010986328125	-15246.8935546875
0.5315	-0.0	-0.0	-0.0	8.5802640914917	29.785594940185547	-386.5695495605469	-3.427924156188965	-30.742595672607425	-393.6816101074219	-0.0	-0.0	-0.0	-0.0	-0.0	-0.0	114011.0390625	2766.930419921875	-15238.533203125
0.532	-0.0	-0.0	-0.0	8.751380920410156	29.014204025268555	-388.9148254394531	-3.266364574432373	-30.597898483276367	-394.5684814453125	-0.0	-0.0	-0.0	-0.0	-0.0	-0.0	113902.0625	2574.628662109375	-15300.7548828125
0.5325	-0.0	-0.0	-0.0	8.57277774810791	29.509716033935547	-388.5318603515625	-2.943426609039306	-30.5822868347168	-395.6236572265625	-0.0	-0.0	-0.0	-0.0	-0.0	-0.0	114225.3671875	2522.917236328125	-15149.2021484375
0.533	-0.0	-0.0	-0.0	8.434279441833496	29.33166885375977	-388.8511352539063	-3.177582263946533	-30.623046875	-395.2396240234375	-0.0	-0.0	-0.0	-0.0	-0.0	-0.0	114191.6640625	2679.7705078125	-15262.70703125
0.5335	-0.0	-0.0	-0.0	8.604819297790527	29.607479095458984	-388.4979248046875	-3.234173059463501	-30.88064765930176	-395.11334228515625	-0.0	-0.0	-0.0	-0.0	-0.0	-0.0	114026.0078125	2697.695556640625	-15262.8251953125
0.534	-0.0	-0.0	-0.0	8.653419494628906	29.891128540039062	-390.3598937988281	-3.177510023117065	-31.10524177551269	-394.0328674316406	-0.0	-0.0	-0.0	-0.0	-0.0	-0.0	114163.375	2748.278076171875	-15227.8134765625
0.5345	-0.0	-0.0	-0.0	8.474998474121094	30.09355926513672	-389.2687072753906	-3.2339556217193604	-30.96882438659668	-395.68359375	-0.0	-0.0	-0.0	-0.0	-0.0	-0.0	114145.015625	2618.736083984375	-15227.818359375
0.535	-0.0	-0.0	-0.0	8.215035438537598	29.93918228149414	-388.144775390625	-3.1612889766693115	-31.52269172668457	-395.27099609375	-0.0	-0.0	-0.0	-0.0	-0.0	-0.0	114025.328125	2739.039794921875	-15265.6357421875
0.5355	-0.0	-0.0	-0.0	8.149474143981934	30.675817489624023	-390.0697326660156	-3.104877471923828	-31.12146377563477	-394.7630920410156	-0.0	-0.0	-0.0	-0.0	-0.0	-0.0	114056.8359375	3143.7724609375	-15311.3447265625
0.536	-0.0	-0.0	-0.0	7.486378192901611	30.377099990844727	-392.2532348632813	-2.983722448348999	-31.410219192504883	-397.0791320800781	-0.0	-0.0	-0.0	-0.0	-0.0	-0.0	113936.8125	2950.18896484375	-15284.5390625
0.5365	-0.0	-0.0	-0.0	7.744897842407227	30.595251083374023	-391.1933898925781	-2.75003433227539	-31.16136932373047	-395.2744140625	-0.0	-0.0	-0.0	-0.0	-0.0	-0.0	114167.359375	2936.439208984375	-15257.1875
0.537	-0.0	-0.0	-0.0	7.85052490234375	30.57866668701172	-391.5187683105469	-2.7102038860321045	-31.37763214111328	-395.2752685546875	-0.0	-0.0	-0.0	-0.0	-0.0	-0.0	114113.296875	3096.587158203125	-15157.326171875
0.5375	-0.0	-0.0	-0.0	7.834035396575928	30.70056533813477	-392.02972412109375	-2.404458522796631	-31.105491638183597	-395.8736572265625	-0.0	-0.0	-0.0	-0.0	-0.0	-0.0	114044.8125	2934.379150390625	-15143.7314453125
0.538	-0.0	-0.0	-0.0	7.477158546447754	30.911739349365234	-391.2579650878906	-2.7336699962615967	-31.36105728149414	-394.4498291015625	-0.0	-0.0	-0.0	-0.0	-0.0	-0.0	114111.7890625	3200.460693359375	-15222.0908203125
0.5385	-0.0	-0.0	-0.0	7.29870080947876	30.812427520751957	-391.0357666015625	-2.4115917682647705	-31.1448974609375	-395.1750793457031	-0.0	-0.0	-0.0	-0.0	-0.0	-0.0	113943.90625	3050.151611328125	-15119.591796875
0.539	-0.0	-0.0	-0.0	7.338083267211914	30.83290100097656	-390.97021484375	-2.4674651622772217	-31.298606872558597	-396.0283508300781	-0.0	-0.0	-0.0	-0.0	-0.0	-0.0	113713.359375	3230.3544921875	-15121.876953125
0.5395	-0.0	-0.0	-0.0	6.919106960296631	30.92824935913086	-391.6107177734375	-2.106235980987549	-31.19395446777344	-393.4688720703125	-0.0	-0.0	-0.0	-0.0	-0.0	-0.0	113742.5234375	3167.9814453125	-15019.42578125
0.54	-0.0	-0.0	-0.0	7.298593044281006	30.889080047607425	-390.7489929199219	-2.073364496231079	-31.05021858215332	-394.6955871582031	-0.0	-0.0	-0.0	-0.0	-0.0	-0.0	113818.421875	3236.46923828125	-15097.3173828125
0.5405	-0.0	-0.0	-0.0	7.1368408203125	31.017379760742188	-391.3233642578125	-1.9020038843154907	-30.8961181640625	-394.150634765625	-0.0	-0.0	-0.0	-0.0	-0.0	-0.0	113697.6328125	3078.0693359375	-15019.205078125
0.541	-0.0	-0.0	-0.0	7.47694206237793	31.485258102416992	-391.3896484375	-1.9516372680664065	-31.05621910095215	-391.8786315917969	-0.0	-0.0	-0.0	-0.0	-0.0	-0.0	113284.25	3027.44775390625	-14959.9521484375
0.5415	-0.0	-0.0	-0.0	7.1871724128723145	31.3456974029541	-389.91064453125	-1.541314959526062	-30.65856170654297	-393.493896484375	-0.0	-0.0	-0.0	-0.0	-0.0	-0.0	113280.0546875	3246.879150390625	-14844.578125
0.542	-0.0	-0.0	-0.0	7.460055828094482	30.90117454528809	-390.2841796875	-1.3252112865447998	-31.000911712646484	-392.6203918457031	-0.0	-0.0	-0.0	-0.0	-0.0	-0.0	113005.46875	3116.92041015625	-14920.5146484375
0.5425	-0.0	-0.0	-0.0	7.604703903198242	31.000545501708984	-390.4168701171875	-1.5467292070388794	-30.65287208557129	-391.8345642089844	-0.0	-0.0	-0.0	-0.0	-0.0	-0.0	112911.234375	3366.100830078125	-14618.5732421875
0.543	-0.0	-0.0	-0.0	7.587677001953125	31.279991149902344	-390.0632934570313	-1.3088446855545044	-30.41596031188965	-391.8139343261719	-0.0	-0.0	-0.0	-0.0	-0.0	-0.0	112762.203125	3085.002197265625	-14757.2763671875
0.5435	-0.0	-0.0	-0.0	7.536729335784912	31.21714401245117	-390.9884033203125	-1.0862016677856443	-30.554412841796875	-390.370849609375	-0.0	-0.0	-0.0	-0.0	-0.0	-0.0	112677.9296875	3296.736572265625	-14673.77734375
0.544	-0.0	-0.0	-0.0	7.6934814453125	31.83649635314941	-388.8511352539063	-1.1317129135131836	-30.36122703552246	-390.8989868164063	-0.0	-0.0	-0.0	-0.0	-0.0	-0.0	112626.6015625	3086.795654296875	-14614.4560546875
0.5445	-0.0	-0.0	-0.0	7.132597923278809	31.356922149658203	-388.5652160644531	-1.4744213819503784	-30.43293190002441	-389.4365539550781	-0.0	-0.0	-0.0	-0.0	-0.0	-0.0	112604.53125	3202.83544921875	-14542.6357421875
0.545	-0.0	-0.0	-0.0	7.459622859954834	31.59024810791016	-390.0454711914063	-1.25881826877594	-31.055646896362305	-390.70068359375	-0.0	-0.0	-0.0	-0.0	-0.0	-0.0	112536.1953125	3095.960693359375	-14692.484375
0.5455	-0.0	-0.0	-0.0	7.256305694580078	31.90868377685547	-389.13671875	-0.8913013339042664	-30.62662124633789	-389.37060546875	-0.0	-0.0	-0.0	-0.0	-0.0	-0.0	112524.0234375	3415.269287109375	-14560.75
0.546	-0.0	-0.0	-0.0	6.886310577392578	32.09064865112305	-389.6929016113281	-0.4604922235012054	-30.93345642089844	-391.13232421875	-0.0	-0.0	-0.0	-0.0	-0.0	-0.0	112447.96875	3461.616455078125	-14560.556640625
0.5465	-0.0	-0.0	-0.0	6.88634729385376	31.96356964111328	-391.6226501464844	-0.8323460817337036	-31.034711837768555	-391.5476989746094	-0.0	-0.0	-0.0	-0.0	-0.0	-0.0	112466.5234375	3205.859130859375	-14658.1181640625
0.547	-0.0	-0.0	-0.0	7.123005390167236	32.069786071777344	-393.3197021484375	-0.4398969411849975	-31.17755508422852	-392.1116638183594	-0.0	-0.0	-0.0	-0.0	-0.0	-0.0	112792.296875	3426.951416015625	-14477.373046875
0.5475	-0.0	-0.0	-0.0	6.382412910461426	32.44346618652344	-393.4549865722656	-0.3002240657806396	-30.90912437438965	-390.7540283203125	-0.0	-0.0	-0.0	-0.0	-0.0	-0.0	112855.2265625	3268.661865234375	-14567.408203125
